<?xml version="1.0" encoding="utf-8"?>
<!-- Generator: Adobe Illustrator 23.1.1, SVG Export Plug-In . SVG Version: 6.00 Build 0)  -->
<svg version="1.1" id="Layer_1" xmlns="http://www.w3.org/2000/svg" xmlns:xlink="http://www.w3.org/1999/xlink" x="0px" y="0px"
	viewBox="0 0 300 300" style="enable-background:new 0 0 300 300;" xml:space="preserve">
<style type="text/css">
	.st0{fill:#D5D5D5;}
	.st1{fill:#0A1A23;}
	.st2{fill:#FFFFFF;}
</style>
<g>
	<rect x="80.7" y="159.8" class="st0" width="7.3" height="21.9"/>
	<rect x="80.7" y="189" class="st0" width="7.3" height="58.5"/>
	<rect x="66.1" y="247.6" class="st0" width="14.6" height="7.3"/>
	<rect x="44.1" y="247.6" class="st0" width="14.6" height="7.3"/>
	<rect x="22.2" y="247.6" class="st0" width="14.6" height="7.3"/>
	<g>
		<rect x="22.2" y="211" class="st1" width="7.3" height="7.3"/>
		<rect x="29.5" y="203.7" class="st1" width="7.3" height="7.3"/>
		<rect x="36.8" y="196.4" class="st1" width="7.3" height="7.3"/>
		<rect x="44.1" y="189" class="st1" width="7.3" height="7.3"/>
		<rect x="51.5" y="181.7" class="st1" width="7.3" height="7.3"/>
		<rect x="58.8" y="174.4" class="st1" width="7.3" height="7.3"/>
		<rect x="66.1" y="189" class="st1" width="14.6" height="58.5"/>
		<rect x="44.1" y="211" class="st1" width="14.6" height="36.6"/>
		<rect x="22.2" y="225.6" class="st1" width="14.6" height="21.9"/>
		<polygon class="st1" points="58.8,159.8 58.8,167.1 66.1,167.1 66.1,174.4 73.4,174.4 73.4,181.7 80.7,181.7 80.7,159.8 		"/>
	</g>
</g>
<g>
	<rect x="241.4" y="170.5" class="st0" width="7.3" height="7.3"/>
	<rect x="256" y="177.8" class="st0" width="7.3" height="7.3"/>
	<rect x="256" y="236.4" class="st0" width="7.3" height="7.3"/>
	<rect x="197.5" y="236.4" class="st0" width="7.3" height="7.3"/>
	<rect x="190.2" y="221.7" class="st0" width="7.3" height="7.3"/>
	<rect x="241.4" y="243.7" class="st0" width="14.6" height="7.3"/>
	<rect x="204.8" y="243.7" class="st0" width="14.6" height="7.3"/>
	<rect x="219.4" y="251" class="st0" width="21.9" height="7.3"/>
	<rect x="263.3" y="185.1" class="st0" width="7.3" height="14.6"/>
	<rect x="263.3" y="221.8" class="st0" width="7.3" height="14.6"/>
	<rect x="270.7" y="199.8" class="st0" width="7.3" height="22"/>
	<path class="st1" d="M263.3,199.8v-14.7H256l0,0v-7.3h-14.6v-7.3h-21.9v7.3l0,0l0,0h-14.6v7.3l0,0l0,0h-7.3v14.7h-7.3v21.9h7.3
		v14.6h7.3l0,0v7.3h14.6v7.3h21.9v-7.3l0,0l0,0H256v-7.3l0,0l0,0h7.3v-14.6h7.3v-21.9H263.3z"/>
</g>
<rect x="171.9" y="40.9" class="st0" width="7.3" height="7.3"/>
<rect x="186.5" y="48.3" class="st0" width="7.3" height="7.3"/>
<rect x="193.8" y="55.6" class="st0" width="7.3" height="7.3"/>
<rect x="193.8" y="158" class="st0" width="7.3" height="7.3"/>
<rect x="201.1" y="150.7" class="st0" width="7.3" height="7.3"/>
<rect x="208.4" y="143.4" class="st0" width="7.3" height="7.3"/>
<rect x="113.3" y="165.3" class="st0" width="7.3" height="7.3"/>
<rect x="106" y="158" class="st0" width="7.3" height="7.3"/>
<rect x="98.7" y="150.7" class="st0" width="7.3" height="7.3"/>
<rect x="91.4" y="143.4" class="st0" width="7.3" height="7.3"/>
<rect x="186.5" y="165.3" class="st0" width="7.3" height="7.3"/>
<rect x="171.9" y="172.6" class="st0" width="14.6" height="7.3"/>
<rect x="120.7" y="172.6" class="st0" width="14.7" height="7.3"/>
<rect x="135.3" y="180" class="st0" width="36.5" height="7.3"/>
<rect x="208.4" y="84.8" class="st0" width="7.3" height="58.5"/>
<rect x="201.1" y="62.9" class="st0" width="7.3" height="14.6"/>
<rect x="193.8" y="150.7" class="st1" width="7.3" height="7.3"/>
<rect x="106" y="150.7" class="st1" width="7.3" height="7.3"/>
<polygon class="st1" points="135.3,172.6 135.3,180 171.9,180 171.9,172.6 186.5,172.6 186.5,165.3 171.9,165.3 171.9,172.6 "/>
<rect x="186.5" y="158" class="st1" width="7.3" height="7.3"/>
<polyline class="st1" points="113.1,93.2 106.1,93.2 106.1,100.3 127.3,100.3 127.3,93.2 120.3,93.2 "/>
<polyline class="st1" points="120.3,128.7 127.3,128.7 127.3,121.6 106.1,121.6 106.1,128.7 113.1,128.7 "/>
<rect x="106" y="100.3" class="st1" width="7.1" height="7.1"/>
<rect x="120.2" y="114.5" class="st1" width="7.1" height="7.1"/>
<line class="st1" x1="134.4" y1="121.6" x2="134.4" y2="114.5"/>
<polyline class="st1" points="127.3,114.5 127.3,107.4 106.1,107.4 106.1,114.5 127.3,114.5 "/>
<polyline class="st1" points="155.8,107.4 155.8,100.3 148.7,100.3 148.7,121.6 155.8,121.6 155.8,114.5 "/>
<polyline class="st1" points="197.3,100.3 204.4,100.3 204.4,93.2 183.1,93.2 183.1,100.3 190.1,100.3 "/>
<polyline class="st1" points="134.4,119.3 134.4,128.7 141.6,128.7 141.6,100.3 134.4,100.3 134.4,109.7 "/>
<polyline class="st1" points="186.6,119.3 186.6,128.7 193.7,128.7 193.7,100.3 186.6,100.3 186.6,109.8 "/>
<polyline class="st1" points="162.9,112.2 162.9,121.6 170,121.6 170,93.2 162.9,93.2 162.9,102.7 "/>
<rect x="141.6" y="93.2" class="st1" width="7.1" height="7.1"/>
<rect x="176" y="93.2" class="st1" width="7.1" height="7.1"/>
<rect x="155.8" y="121.6" class="st1" width="7.1" height="7.1"/>
<rect x="186.5" y="143.4" class="st1" width="7.3" height="7.3"/>
<rect x="171.9" y="150.7" class="st1" width="14.6" height="7.3"/>
<rect x="113.3" y="143.4" class="st1" width="7.3" height="7.3"/>
<rect x="201.1" y="143.4" class="st1" width="7.3" height="7.3"/>
<rect x="98.7" y="143.4" class="st1" width="7.3" height="7.3"/>
<rect x="120.7" y="150.7" class="st1" width="14.7" height="7.3"/>
<polyline class="st1" points="208.4,136.1 208.4,143.4 215.8,143.4 215.8,84.8 208.4,84.8 208.4,70.2 201.1,70.2 201.1,84.8 
	208.4,84.8 208.4,121.4 "/>
<polyline class="st1" points="98.7,121.4 98.7,84.8 91.4,84.8 91.4,143.4 98.7,143.4 98.7,136.1 "/>
<polygon class="st1" points="135.3,165.3 120.7,165.3 120.7,158 113.3,158 113.3,165.3 120.7,165.3 120.7,172.6 135.3,172.6 
	135.3,165.3 171.9,165.3 171.9,158 135.3,158 "/>
<rect x="113.3" y="55.6" class="st1" width="7.3" height="7.3"/>
<rect x="91.4" y="77.5" class="st1" width="7.3" height="7.3"/>
<rect x="98.7" y="70.2" class="st1" width="7.3" height="7.3"/>
<rect x="106" y="62.9" class="st1" width="7.3" height="14.6"/>
<rect x="120.7" y="48.3" class="st1" width="14.7" height="7.3"/>
<rect x="186.5" y="55.6" class="st1" width="7.3" height="7.3"/>
<rect x="193.8" y="62.9" class="st1" width="7.3" height="7.3"/>
<rect x="171.9" y="48.3" class="st1" width="14.6" height="7.3"/>
<rect x="135.3" y="40.9" class="st1" width="36.5" height="7.3"/>
<g>
	<rect x="219.4" y="192.3" class="st2" width="7.3" height="7.3"/>
	<polygon class="st2" points="245,206.9 245,199.6 241.4,199.6 241.4,192.3 234.1,192.3 234.1,199.6 237.7,199.6 237.7,206.9 
		223.1,206.9 223.1,199.6 215.8,199.6 215.8,206.9 212.1,206.9 212.1,214.3 219.4,214.3 219.4,214.3 219.4,221.6 226.7,221.6 
		226.8,221.5 226.7,228.9 234.1,228.9 234.1,221.6 241.4,221.6 241.4,214.3 241.1,214.3 241.4,214.3 248.7,214.3 248.7,206.9 	"/>
	<rect x="226.7" y="185" class="st2" width="7.3" height="7.3"/>
	<rect x="212.1" y="221.7" class="st2" width="7.3" height="7.3"/>
	<rect x="241.4" y="221.7" class="st2" width="7.3" height="7.3"/>
	
		<rect x="234.1" y="229" transform="matrix(2.544881e-03 -1 1 2.544881e-03 4.4168 469.8168)" class="st2" width="7.3" height="7.3"/>
	
		<rect x="226.7" y="236.3" transform="matrix(2.686262e-03 -1 1 2.686262e-03 -10.2322 469.726)" class="st2" width="7.3" height="7.3"/>
	
		<rect x="219.4" y="229" transform="matrix(2.544881e-03 -1 1 2.544881e-03 -10.1429 455.1435)" class="st2" width="7.3" height="7.3"/>
</g>
</svg>
