<?xml version="1.0" encoding="utf-8"?>
<!-- Generator: Adobe Illustrator 23.1.1, SVG Export Plug-In . SVG Version: 6.00 Build 0)  -->
<svg version="1.1" id="Layer_1" xmlns="http://www.w3.org/2000/svg" xmlns:xlink="http://www.w3.org/1999/xlink" x="0px" y="0px"
	 viewBox="0 0 300 300" style="enable-background:new 0 0 300 300;" xml:space="preserve">
<style type="text/css">
	.st0{fill:#D5D5D5;}
	.st1{fill:#0A1A23;}
</style>
<rect x="176" y="43.1" class="st0" width="8.2" height="8.2"/>
<rect x="192.3" y="51.3" class="st0" width="8.2" height="8.2"/>
<rect x="208.8" y="59.5" class="st0" width="8.2" height="8.2"/>
<polygon class="st0" points="217,67.7 217,75.9 225.2,75.9 225.2,92.4 233.4,92.4 233.4,75.9 225.2,75.9 225.2,67.7 "/>
<polygon class="st0" points="217,190.8 208.8,190.8 208.8,199 217,199 217,190.8 225.2,190.8 225.2,182.6 217,182.6 "/>
<rect x="77.5" y="166.2" class="st0" width="8.2" height="8.2"/>
<rect x="69.3" y="149.6" class="st0" width="8.2" height="8.2"/>
<rect x="192.4" y="199" class="st0" width="16.4" height="8.2"/>
<rect x="176" y="207.2" class="st0" width="16.4" height="8.2"/>
<rect x="135" y="215.4" class="st0" width="41" height="8.2"/>
<rect x="233.4" y="92.4" class="st0" width="8.2" height="16.4"/>
<polygon class="st0" points="241.6,149.8 233.4,149.8 233.4,166.1 225.2,166.1 225.2,182.6 233.4,182.6 233.4,166.2 241.6,166.2 "/>
<rect x="241.6" y="108.8" class="st0" width="8.2" height="41"/>
<rect x="176" y="51.3" class="st1" width="16.4" height="8.2"/>
<rect x="176" y="199" class="st1" width="16.4" height="8.2"/>
<polygon class="st1" points="200.6,67.7 200.6,67.7 200.6,75.9 217,75.9 217,92.4 225.2,92.4 225.2,75.9 217,75.9 217,67.7 
	208.8,67.7 208.8,67.7 208.8,67.7 208.8,59.6 192.4,59.6 192.4,67.7 "/>
<polygon class="st1" points="217,182.6 200.7,182.6 200.7,190.8 200.7,190.8 192.4,190.8 192.4,199 208.8,199 208.8,190.8 
	208.8,190.8 217,190.8 217,182.6 225.2,182.6 225.2,166.2 217,166.2 "/>
<rect x="225.2" y="92.4" class="st1" width="8.2" height="16.4"/>
<rect x="225.2" y="149.8" class="st1" width="8.2" height="16.4"/>
<rect x="135" y="59.6" class="st1" width="8.2" height="8.2"/>
<polygon class="st1" points="118.5,92.4 126.7,92.4 126.7,75.9 135,75.9 135,67.7 126.7,67.7 126.7,75.9 110.3,75.9 110.3,84.1 
	118.5,84.1 "/>
<rect x="110.3" y="92.4" class="st1" width="8.2" height="16.4"/>
<rect x="167.7" y="59.6" class="st1" width="8.2" height="8.2"/>
<polygon class="st1" points="175.9,75.9 184.1,75.9 184.1,92.4 192.3,92.4 192.3,84.1 200.5,84.1 200.5,75.9 184.1,75.9 184.1,67.7 
	175.9,67.7 "/>
<rect x="192.3" y="92.4" class="st1" width="8.2" height="16.4"/>
<rect x="167.7" y="190.8" class="st1" width="8.2" height="8.2"/>
<polygon class="st1" points="192.3,166.2 184.1,166.2 184.1,182.6 175.9,182.6 175.9,190.8 184.1,190.8 184.1,182.6 200.6,182.6 
	200.6,174.3 192.3,174.3 "/>
<rect x="192.3" y="149.8" class="st1" width="8.2" height="16.4"/>
<polygon class="st1" points="126.7,166.2 118.5,166.2 118.5,174.3 110.4,174.3 110.4,182.6 126.7,182.6 126.7,190.8 135,190.8 
	135,182.6 126.7,182.6 "/>
<polygon class="st1" points="233.4,108.8 233.4,125.2 208.8,125.2 208.8,125.2 208.8,125.2 208.8,108.8 200.6,108.8 200.6,125.2 
	200.7,125.2 200.7,125.2 159.5,125.2 159.5,108.7 176,108.7 176,100.6 184.1,100.6 184.1,92.4 175.9,92.4 175.9,100.5 159.5,100.5 
	159.5,59.6 167.7,59.6 167.7,51.3 176,51.3 176,43.1 135,43.1 135,51.3 143.1,51.3 143.1,59.6 151.4,59.6 151.4,100.5 135,100.5 
	135,92.4 126.7,92.4 126.7,100.6 135,100.6 135,108.7 151.4,108.7 151.4,125.2 109.9,125.2 109.9,125.2 110.2,125.2 110.2,108.8 
	102,108.8 102,125.2 102.1,125.2 102.1,125.2 77.5,125.2 77.5,108.8 69.3,108.8 69.3,149.8 77.5,149.8 77.5,133.4 102,133.4 
	102,149.8 110.2,149.8 110.2,133.4 151.4,133.4 151.4,149.8 135,149.8 135,157.9 126.8,157.9 126.8,166.2 135,166.2 135,158 
	151.4,158 151.4,199 143.1,199 143.1,207.2 135,207.2 135,215.4 176,215.4 176,207.2 167.7,207.2 167.7,199 159.5,199 159.5,158 
	176,158 176,166.2 184.2,166.2 184.2,157.9 176,157.9 176,149.8 159.5,149.8 159.5,133.4 200.6,133.4 200.6,149.8 208.8,149.8 
	208.8,133.4 233.4,133.4 233.4,149.8 241.6,149.8 241.6,108.8 "/>
<rect x="118.5" y="51.3" class="st1" width="16.4" height="8.2"/>
<polygon class="st1" points="93.9,75.9 110.2,75.9 110.2,67.7 110.2,67.7 118.5,67.7 118.5,59.6 102.1,59.6 102.1,67.7 102.3,67.7 
	102.3,67.7 93.9,67.7 93.9,75.9 85.7,75.9 85.7,92.4 93.9,92.4 "/>
<rect x="77.5" y="149.8" class="st1" width="8.2" height="16.4"/>
<rect x="43" y="205.9" class="st1" width="17.9" height="9"/>
<rect x="51.9" y="196.9" class="st1" width="9" height="9"/>
<rect x="51.9" y="215" class="st1" width="9" height="9"/>
<rect x="43" y="215" class="st1" width="9" height="9"/>
<rect x="34" y="215" class="st1" width="9" height="9"/>
<rect x="60.9" y="205.9" class="st1" width="9" height="9"/>
<rect x="69.8" y="215" class="st1" width="9" height="9"/>
<rect x="78.8" y="205.9" class="st1" width="9" height="9"/>
<rect x="87.7" y="215" class="st1" width="9" height="9"/>
</svg>
