<svg width="26" height="26" viewBox="0 0 26 26" fill="none" xmlns="http://www.w3.org/2000/svg">
<rect width="26" height="26" rx="13" fill="#4360DF"/>
<path fill-rule="evenodd" clip-rule="evenodd" d="M13.564 12.5345C14.4448 12.6282 15.3256 12.7219 16.4085 12.6602C19.3425 12.4931 21.1198 10.9547 20.9937 8.6551C20.8652 6.31539 18.5007 4.87391 16.1349 5.0087C12.2794 5.22815 9.44428 8.68621 9.12497 12.6386C9.64857 12.5133 10.1997 12.4385 10.7194 12.4089C11.8024 12.3473 12.6832 12.4409 13.564 12.5345ZM6.00598 17.6495C6.12764 19.7943 8.3677 21.1156 10.6091 20.992C14.2616 20.7908 16.9476 17.6209 17.25 13.9979C16.754 14.1128 16.2319 14.1815 15.7395 14.2085C14.7136 14.265 13.879 14.1792 13.0445 14.0933C12.2101 14.0075 11.3756 13.9217 10.3497 13.9782C7.57021 14.1313 5.88632 15.5415 6.00598 17.6495Z" fill="white"/>
</svg>
