<svg width="297" height="128" viewBox="0 0 297 128" fill="none" xmlns="http://www.w3.org/2000/svg">
<circle cx="9" cy="9" r="9" fill="#4564DC"/>
<circle cx="40" cy="9" r="9" fill="white" fill-opacity="0.3"/>
<circle cx="71" cy="9" r="9" fill="white" fill-opacity="0.3"/>
<circle cx="102" cy="9" r="9" fill="white" fill-opacity="0.3"/>
<circle cx="133" cy="9" r="9" fill="white" fill-opacity="0.3"/>
<circle cx="164" cy="9" r="9" fill="white" fill-opacity="0.3"/>
<circle cx="195" cy="9" r="9" fill="white" fill-opacity="0.3"/>
<circle cx="226" cy="9" r="9" fill="white" fill-opacity="0.3"/>
<circle cx="257" cy="9" r="9" fill="white" fill-opacity="0.3"/>
<circle cx="288" cy="9" r="9" fill="white" fill-opacity="0.3"/>
<circle cx="9" cy="37" r="9" fill="#4564DC"/>
<circle cx="40" cy="37" r="9" fill="white" fill-opacity="0.3"/>
<circle cx="71" cy="37" r="9" fill="white" fill-opacity="0.3"/>
<circle cx="102" cy="37" r="9" fill="white" fill-opacity="0.3"/>
<circle cx="133" cy="37" r="9" fill="white" fill-opacity="0.3"/>
<circle cx="164" cy="37" r="9" fill="white" fill-opacity="0.3"/>
<circle cx="195" cy="37" r="9" fill="white" fill-opacity="0.3"/>
<circle cx="226" cy="37" r="9" fill="white" fill-opacity="0.3"/>
<circle cx="257" cy="37" r="9" fill="white" fill-opacity="0.3"/>
<circle cx="288" cy="37" r="9" fill="white" fill-opacity="0.3"/>
<circle cx="9" cy="63" r="9" fill="#4564DC"/>
<circle cx="40" cy="63" r="9" fill="white" fill-opacity="0.3"/>
<circle cx="71" cy="63" r="9" fill="white" fill-opacity="0.3"/>
<circle cx="102" cy="63" r="9" fill="white" fill-opacity="0.3"/>
<circle cx="133" cy="63" r="9" fill="white" fill-opacity="0.3"/>
<circle cx="164" cy="63" r="9" fill="white" fill-opacity="0.3"/>
<circle cx="195" cy="63" r="9" fill="white" fill-opacity="0.3"/>
<circle cx="226" cy="63" r="9" fill="white" fill-opacity="0.3"/>
<circle cx="257" cy="63" r="9" fill="white" fill-opacity="0.3"/>
<circle cx="288" cy="63" r="9" fill="white" fill-opacity="0.3"/>
<circle cx="9" cy="91" r="9" fill="#4564DC"/>
<circle cx="40" cy="91" r="9" fill="white" fill-opacity="0.3"/>
<circle cx="71" cy="91" r="9" fill="white" fill-opacity="0.3"/>
<circle cx="102" cy="91" r="9" fill="white" fill-opacity="0.3"/>
<circle cx="133" cy="91" r="9" fill="white" fill-opacity="0.3"/>
<circle cx="164" cy="91" r="9" fill="white" fill-opacity="0.3"/>
<circle cx="195" cy="91" r="9" fill="white" fill-opacity="0.3"/>
<circle cx="226" cy="91" r="9" fill="white" fill-opacity="0.3"/>
<circle cx="257" cy="91" r="9" fill="white" fill-opacity="0.3"/>
<circle cx="288" cy="91" r="9" fill="white" fill-opacity="0.3"/>
<circle cx="9" cy="119" r="9" fill="#4564DC"/>
<circle cx="40" cy="119" r="9" fill="white" fill-opacity="0.3"/>
<circle cx="71" cy="119" r="9" fill="white" fill-opacity="0.3"/>
<circle cx="102" cy="119" r="9" fill="white" fill-opacity="0.3"/>
<circle cx="133" cy="119" r="9" fill="white" fill-opacity="0.3"/>
<circle cx="164" cy="119" r="9" fill="white" fill-opacity="0.3"/>
<circle cx="195" cy="119" r="9" fill="white" fill-opacity="0.3"/>
<circle cx="226" cy="119" r="9" fill="white" fill-opacity="0.3"/>
<circle cx="257" cy="119" r="9" fill="white" fill-opacity="0.3"/>
<circle cx="288" cy="119" r="9" fill="white" fill-opacity="0.3"/>
</svg>
