<svg width="26" height="26" viewBox="0 0 26 26" fill="none" xmlns="http://www.w3.org/2000/svg">
<rect width="26" height="26" rx="13" fill="#4360DF"/>
<g clip-path="url(#clip0)">
<path d="M20 8.65945C19.4847 8.88777 18.9318 9.04262 18.3509 9.11175C18.9441 8.75656 19.3981 8.19317 19.6133 7.52392C19.0569 7.85285 18.4428 8.09169 17.7884 8.22117C17.2644 7.66216 16.519 7.31396 15.6923 7.31396C14.1062 7.31396 12.8202 8.59997 12.8202 10.1852C12.8202 10.41 12.8455 10.6296 12.8945 10.8396C10.508 10.7197 8.39178 9.57629 6.97542 7.83885C6.72784 8.26228 6.58699 8.75566 6.58699 9.28233C6.58699 10.2788 7.0944 11.158 7.86426 11.6724C7.39359 11.6566 6.95092 11.5272 6.56339 11.3119V11.3478C6.56339 12.7388 7.5537 13.8997 8.86682 14.1639C8.62624 14.2286 8.37254 14.2645 8.11009 14.2645C7.92463 14.2645 7.74529 14.2461 7.56944 14.2111C7.93511 15.3528 8.99543 16.183 10.2517 16.2058C9.26925 16.9756 8.03048 17.4332 6.68499 17.4332C6.45317 17.4332 6.22482 17.4192 6 17.3938C7.27114 18.21 8.78024 18.6859 10.4022 18.6859C15.6853 18.6859 18.5731 14.31 18.5731 10.515L18.5635 10.1432C19.1278 9.74074 19.6159 9.23509 20 8.65945Z" fill="white"/>
</g>
<defs>
<clipPath id="clip0">
<rect width="14" height="14" fill="white" transform="translate(20 20) rotate(-180)"/>
</clipPath>
</defs>
</svg>
