<?xml version="1.0" encoding="utf-8"?>
<!-- Generator: Adobe Illustrator 23.1.1, SVG Export Plug-In . SVG Version: 6.00 Build 0)  -->
<svg version="1.1" id="Layer_1" xmlns="http://www.w3.org/2000/svg" xmlns:xlink="http://www.w3.org/1999/xlink" x="0px" y="0px"
	 viewBox="0 0 300 300" style="enable-background:new 0 0 300 300;" xml:space="preserve">
<style type="text/css">
	.st0{fill:#D5D5D5;}
	.st1{fill:#0A1A23;}
	.st2{fill:#FFFFFF;}
</style>
<rect x="200.6" y="58.7" class="st0" width="8.5" height="8.4"/>
<rect x="209.1" y="67.2" class="st0" width="8.4" height="8.5"/>
<rect x="217.5" y="75.6" class="st0" width="8.5" height="8.5"/>
<rect x="209.1" y="84.1" class="st0" width="8.4" height="8.5"/>
<rect x="209.1" y="168.8" class="st0" width="8.4" height="8.5"/>
<rect x="217.5" y="177.2" class="st0" width="8.5" height="8.5"/>
<rect x="200.6" y="194.1" class="st0" width="8.5" height="8.5"/>
<rect x="192.1" y="202.6" class="st0" width="8.5" height="8.5"/>
<rect x="183.7" y="194.1" class="st0" width="8.4" height="8.5"/>
<rect x="99" y="194.1" class="st0" width="8.5" height="8.5"/>
<rect x="90.6" y="202.6" class="st0" width="8.5" height="8.5"/>
<rect x="82.1" y="194.1" class="st0" width="8.5" height="8.5"/>
<rect x="73.6" y="185.7" class="st0" width="8.5" height="8.5"/>
<rect x="124.4" y="194.1" class="st0" width="42.4" height="8.5"/>
<rect x="166.8" y="185.7" class="st0" width="16.9" height="8.5"/>
<rect x="107.5" y="185.7" class="st0" width="16.9" height="8.5"/>
<rect x="209.1" y="185.7" class="st0" width="8.4" height="8.5"/>
<rect x="209.1" y="109.5" class="st0" width="8.4" height="42.3"/>
<rect x="200.6" y="92.6" class="st0" width="8.5" height="16.9"/>
<rect x="200.6" y="151.8" class="st0" width="8.5" height="16.9"/>
<rect x="183.7" y="67.2" class="st1" width="8.4" height="8.5"/>
<polygon class="st1" points="200.6,92.6 192.1,92.6 192.1,109.5 200.6,109.5 200.6,92.6 209.1,92.6 209.1,84.1 200.6,84.1 "/>
<rect x="192.1" y="75.6" class="st1" width="8.5" height="8.5"/>
<rect x="192.1" y="58.7" class="st1" width="8.5" height="8.4"/>
<rect x="200.6" y="67.2" class="st1" width="8.5" height="8.5"/>
<rect x="209.1" y="75.6" class="st1" width="8.4" height="8.5"/>
<rect x="73.6" y="75.6" class="st1" width="8.5" height="8.5"/>
<rect x="90.6" y="58.7" class="st1" width="8.5" height="8.4"/>
<rect x="82.1" y="67.2" class="st1" width="8.5" height="8.5"/>
<rect x="82.1" y="84.1" class="st1" width="8.5" height="8.5"/>
<polygon class="st1" points="99,75.6 90.6,75.6 90.6,84.1 99,84.1 99,92.6 107.5,92.6 107.5,84.1 99,84.1 "/>
<polygon class="st1" points="107.5,67.2 99,67.2 99,75.6 107.5,75.6 107.5,84.1 124.4,84.1 124.4,75.6 107.5,75.6 "/>
<rect x="99" y="185.7" class="st1" width="8.5" height="8.5"/>
<rect x="82.1" y="168.8" class="st1" width="8.5" height="8.5"/>
<rect x="90.6" y="177.2" class="st1" width="8.5" height="8.5"/>
<rect x="90.6" y="194.1" class="st1" width="8.5" height="8.5"/>
<rect x="82.1" y="185.7" class="st1" width="8.5" height="8.5"/>
<rect x="73.6" y="177.2" class="st1" width="8.5" height="8.5"/>
<rect x="209.1" y="177.2" class="st1" width="8.4" height="8.5"/>
<rect x="192.1" y="194.1" class="st1" width="8.5" height="8.5"/>
<rect x="200.6" y="185.7" class="st1" width="8.5" height="8.5"/>
<rect x="200.6" y="168.8" class="st1" width="8.5" height="8.5"/>
<rect x="192.1" y="177.2" class="st1" width="8.5" height="8.5"/>
<rect x="116" y="101" class="st1" width="8.4" height="8.5"/>
<rect x="116" y="151.8" class="st1" width="8.4" height="8.5"/>
<rect x="166.8" y="151.8" class="st1" width="8.4" height="8.5"/>
<rect x="124.4" y="160.3" class="st1" width="42.4" height="8.5"/>
<rect x="166.8" y="101" class="st1" width="8.4" height="8.5"/>
<rect x="124.4" y="92.6" class="st1" width="42.4" height="8.5"/>
<rect x="107.5" y="109.5" class="st1" width="8.5" height="42.3"/>
<rect x="175.2" y="109.5" class="st1" width="8.5" height="42.3"/>
<rect x="183.7" y="84.1" class="st1" width="8.4" height="8.5"/>
<rect x="166.8" y="75.6" class="st1" width="16.9" height="8.5"/>
<rect x="183.7" y="168.8" class="st1" width="8.4" height="8.5"/>
<rect x="192.1" y="151.8" class="st1" width="8.5" height="17"/>
<polygon class="st1" points="183.7,177.2 166.8,177.2 166.8,185.7 124.4,185.7 124.4,194.1 166.8,194.1 166.8,185.7 183.7,185.7 
	183.7,194.1 192.1,194.1 192.1,185.7 183.7,185.7 "/>
<rect x="124.4" y="67.2" class="st1" width="42.4" height="8.5"/>
<rect x="200.6" y="109.5" class="st1" width="8.5" height="42.3"/>
<rect x="99" y="168.8" class="st1" width="8.5" height="8.5"/>
<rect x="107.5" y="177.2" class="st1" width="16.9" height="8.5"/>
<rect x="90.6" y="151.8" class="st1" width="8.5" height="17"/>
<rect x="90.6" y="92.6" class="st1" width="8.5" height="16.9"/>
<rect x="82.1" y="109.5" class="st1" width="8.5" height="42.3"/>
<g>
	<g>
		<path class="st1" d="M159.4,109.5v-9l-38.1,0.5l2.1,7H116v37.6h7.4v6.2h37v-6.2h6.4v-36.1H159.4z M153,145.6h-22.2v-7.5h7.4v-15
			h-7.4v-7.5h7.4V108h7.4v30.1h7.4V145.6z"/>
	</g>
</g>
<rect x="116" y="143.3" class="st2" width="8.4" height="8.5"/>
<rect x="158.3" y="101" class="st2" width="8.4" height="8.5"/>
</svg>
